<svg width="557" height="98" viewBox="0 0 557 98" fill="none" xmlns="http://www.w3.org/2000/svg">
<path d="M47.936 48.176C51.3813 48.72 54.5093 50.1253 57.32 52.392C60.2213 54.6587 62.488 57.4693 64.12 60.824C65.8427 64.1787 66.704 67.76 66.704 71.568C66.704 76.3733 65.48 80.7253 63.032 84.624C60.584 88.432 57.0027 91.4693 52.288 93.736C47.664 95.912 42.1787 97 35.832 97H0.472001V2.208H34.472C40.9093 2.208 46.3947 3.296 50.928 5.47199C55.4613 7.55733 58.8613 10.4133 61.128 14.04C63.3947 17.6667 64.528 21.7467 64.528 26.28C64.528 31.9013 62.9867 36.5707 59.904 40.288C56.912 43.9147 52.9227 46.544 47.936 48.176ZM12.848 43.144H33.656C39.4587 43.144 43.9467 41.784 47.12 39.064C50.2933 36.344 51.88 32.5813 51.88 27.776C51.88 22.9707 50.2933 19.208 47.12 16.488C43.9467 13.768 39.368 12.408 33.384 12.408H12.848V43.144ZM34.744 86.8C40.9093 86.8 45.7147 85.3493 49.16 82.448C52.6053 79.5467 54.328 75.512 54.328 70.344C54.328 65.0853 52.5147 60.96 48.888 57.968C45.2613 54.8853 40.4107 53.344 34.336 53.344H12.848V86.8H34.744ZM96.2543 12.272V43.96H130.798V54.16H96.2543V86.8H134.878V97H83.8783V2.072H134.878V12.272H96.2543ZM228.133 97H215.757L165.981 21.52V97H153.605V2.072H165.981L215.757 77.416V2.072H228.133V97ZM261.606 12.272V43.96H296.15V54.16H261.606V86.8H300.23V97H249.23V2.072H300.23V12.272H261.606ZM372.54 2.208V12.272H331.332V44.232H364.788V54.296H331.332V97H318.956V2.208H372.54ZM399.864 2.208V97H387.488V2.208H399.864ZM479.3 2.208V12.272H453.46V97H441.084V12.272H415.108V2.208H479.3ZM524.591 97.952C518.335 97.952 512.713 96.864 507.727 94.688C502.831 92.4213 498.977 89.3387 496.167 85.44C493.356 81.4507 491.905 76.872 491.815 71.704H505.007C505.46 76.1467 507.273 79.9093 510.447 82.992C513.711 85.984 518.425 87.48 524.591 87.48C530.484 87.48 535.108 86.0293 538.463 83.128C541.908 80.136 543.631 76.328 543.631 71.704C543.631 68.0773 542.633 65.1307 540.639 62.864C538.644 60.5973 536.151 58.8747 533.159 57.696C530.167 56.5173 526.132 55.248 521.055 53.888C514.799 52.256 509.767 50.624 505.959 48.992C502.241 47.36 499.023 44.8213 496.303 41.376C493.673 37.84 492.359 33.1253 492.359 27.232C492.359 22.064 493.673 17.4853 496.303 13.496C498.932 9.50666 502.604 6.42399 507.319 4.24799C512.124 2.072 517.609 0.983996 523.775 0.983996C532.66 0.983996 539.913 3.20533 545.535 7.648C551.247 12.0907 554.465 17.984 555.191 25.328H541.591C541.137 21.7013 539.233 18.528 535.879 15.808C532.524 12.9973 528.081 11.592 522.551 11.592C517.383 11.592 513.167 12.952 509.903 15.672C506.639 18.3013 505.007 22.0187 505.007 26.824C505.007 30.2693 505.959 33.08 507.863 35.256C509.857 37.432 512.26 39.1093 515.071 40.288C517.972 41.376 522.007 42.6453 527.175 44.096C533.431 45.8187 538.463 47.5413 542.271 49.264C546.079 50.896 549.343 53.48 552.062 57.016C554.783 60.4613 556.143 65.176 556.143 71.16C556.143 75.784 554.919 80.136 552.471 84.216C550.023 88.296 546.396 91.6053 541.591 94.144C536.785 96.6827 531.119 97.952 524.591 97.952Z" fill="#979797" fill-opacity="0.1"/>
</svg>
