<svg width="12" height="14" viewBox="0 0 12 14" fill="none" xmlns="http://www.w3.org/2000/svg">
<g clip-path="url(#clip0_275_942)">
<path d="M1.01398 0.523469C1.29012 0.20073 1.67527 0 2.09715 0H9.31311C9.73508 0 10.12 0.20073 10.3962 0.523469C10.673 0.845715 10.8451 1.29486 10.845 1.78741V1.9314H11.1818C11.3215 1.9314 11.4347 2.06361 11.4347 2.22674C11.4347 2.38943 11.3215 2.52161 11.1818 2.52161H10.845V4.29234H11.1818C11.3215 4.29234 11.4347 4.42452 11.4347 4.58743C11.4347 4.75013 11.3215 4.88255 11.1818 4.88255H10.845V6.65325H11.1818C11.3215 6.65325 11.4347 6.78546 11.4347 6.94816C11.4347 7.11107 11.3215 7.24303 11.1818 7.24303H10.845V9.01395H11.1818C11.3215 9.01395 11.4347 9.14637 11.4347 9.3091C11.4347 9.47201 11.3215 9.60397 11.1818 9.60397H10.845V11.3749H11.1818C11.3215 11.3749 11.4347 11.5069 11.4347 11.6698C11.4347 11.8327 11.3215 11.9649 11.1818 11.9649H10.845V12.2128C10.8451 12.7051 10.673 13.1543 10.3962 13.4765C10.12 13.7992 9.73508 14.0002 9.31311 14H2.09715C1.67527 14.0002 1.29012 13.7992 1.01398 13.4765C0.737372 13.1543 0.565202 12.7051 0.565389 12.2128V1.78741C0.565202 1.29486 0.737372 0.845715 1.01398 0.523469ZM8.17908 13.2135H9.31311C9.55107 13.2135 9.76332 13.1022 9.91955 12.9204C10.0753 12.7381 10.1706 12.4906 10.1708 12.2128V11.9649H9.63577C9.54765 12.1372 9.38644 12.2533 9.20178 12.2533C8.92259 12.2533 8.69625 11.9891 8.69625 11.6635C8.69625 11.3377 8.92259 11.0737 9.20178 11.0737C9.39113 11.0737 9.55576 11.1952 9.64245 11.3749H10.1708V9.60395H9.63666C9.54863 9.77733 9.38705 9.89395 9.2018 9.89395C8.92261 9.89395 8.69628 9.62976 8.69628 9.30418C8.69628 8.97857 8.92261 8.71437 9.2018 8.71437C9.39059 8.71437 9.55482 8.83542 9.64163 9.01392H10.1708V7.243H9.63751C9.54966 7.41751 9.38759 7.53479 9.20178 7.53479C8.92259 7.53479 8.69625 7.27059 8.69625 6.94523C8.69625 6.61918 8.92259 6.35502 9.20178 6.35502C9.38998 6.35502 9.55376 6.47519 9.64074 6.65323H10.1708V4.88253H9.63828C9.55053 5.05747 9.38818 5.17543 9.2018 5.17543C8.92261 5.17543 8.69628 4.91148 8.69628 4.58566C8.69628 4.26027 8.92261 3.99585 9.2018 3.99585C9.38933 3.99585 9.55292 4.11559 9.63999 4.29231H10.1708V2.52161H9.63912C9.55168 2.69765 9.38876 2.8163 9.20178 2.8163C8.92259 2.8163 8.69625 2.5521 8.69625 2.22674C8.69625 1.90069 8.92259 1.63671 9.20178 1.63671C9.38874 1.63671 9.55165 1.75555 9.63912 1.9314H10.1708V1.78741C10.1706 1.5094 10.0753 1.26194 9.91958 1.07942C9.76334 0.897805 9.55109 0.786762 9.31313 0.786543H8.17911V13.2135H8.17908ZM1.23938 12.2128C1.23957 12.4906 1.33486 12.7381 1.49063 12.9204C1.64686 13.1022 1.85921 13.2135 2.09717 13.2135H7.92624V0.786543H2.09715C1.85919 0.786762 1.64684 0.897805 1.49061 1.07942C1.33484 1.26194 1.23957 1.5094 1.23936 1.78741L1.23938 12.2128Z" fill="#222222"/>
<path d="M2.41912 3.09277H6.89404V3.38765H2.41912V3.09277Z" fill="#222222"/>
<path d="M2.41912 4.98511H6.89404V5.28001H2.41912V4.98511Z" fill="#222222"/>
<path d="M2.41912 6.87769H6.89404V7.17259H2.41912V6.87769Z" fill="#222222"/>
<path d="M2.41912 8.77002H6.89404V9.06492H2.41912V8.77002Z" fill="#222222"/>
<path d="M2.41912 10.6624H6.89404V10.957H2.41912V10.6624Z" fill="#222222"/>
</g>
<defs>
<clipPath id="clip0_275_942">
<rect width="12" height="14" fill="white" transform="matrix(-1 0 0 1 12 0)"/>
</clipPath>
</defs>
</svg>
