<svg width="339" height="97" viewBox="0 0 339 97" fill="none" xmlns="http://www.w3.org/2000/svg">
<path d="M47.936 47.176C51.3813 47.72 54.5093 49.1253 57.32 51.392C60.2213 53.6587 62.488 56.4693 64.12 59.824C65.8427 63.1787 66.704 66.76 66.704 70.568C66.704 75.3733 65.48 79.7253 63.032 83.624C60.584 87.432 57.0027 90.4693 52.288 92.736C47.664 94.912 42.1787 96 35.832 96H0.472001V1.208H34.472C40.9093 1.208 46.3947 2.296 50.928 4.47199C55.4613 6.55733 58.8613 9.41333 61.128 13.04C63.3947 16.6667 64.528 20.7467 64.528 25.28C64.528 30.9013 62.9867 35.5707 59.904 39.288C56.912 42.9147 52.9227 45.544 47.936 47.176ZM12.848 42.144H33.656C39.4587 42.144 43.9467 40.784 47.12 38.064C50.2933 35.344 51.88 31.5813 51.88 26.776C51.88 21.9707 50.2933 18.208 47.12 15.488C43.9467 12.768 39.368 11.408 33.384 11.408H12.848V42.144ZM34.744 85.8C40.9093 85.8 45.7147 84.3493 49.16 81.448C52.6053 78.5467 54.328 74.512 54.328 69.344C54.328 64.0853 52.5147 59.96 48.888 56.968C45.2613 53.8853 40.4107 52.344 34.336 52.344H12.848V85.8H34.744ZM96.2543 85.936H129.438V96H83.8783V1.208H96.2543V85.936ZM185.557 96.952C176.763 96.952 168.739 94.912 161.485 90.832C154.232 86.6613 148.475 80.904 144.213 73.56C140.043 66.1253 137.957 57.784 137.957 48.536C137.957 39.288 140.043 30.992 144.213 23.648C148.475 16.2133 154.232 10.456 161.485 6.37599C168.739 2.20533 176.763 0.119994 185.557 0.119994C194.443 0.119994 202.512 2.20533 209.765 6.37599C217.019 10.456 222.731 16.168 226.901 23.512C231.072 30.856 233.157 39.1973 233.157 48.536C233.157 57.8747 231.072 66.216 226.901 73.56C222.731 80.904 217.019 86.6613 209.765 90.832C202.512 94.912 194.443 96.952 185.557 96.952ZM185.557 86.208C192.176 86.208 198.115 84.6667 203.373 81.584C208.723 78.5013 212.893 74.104 215.885 68.392C218.968 62.68 220.509 56.0613 220.509 48.536C220.509 40.92 218.968 34.3013 215.885 28.68C212.893 22.968 208.768 18.5707 203.509 15.488C198.251 12.4053 192.267 10.864 185.557 10.864C178.848 10.864 172.864 12.4053 167.605 15.488C162.347 18.5707 158.176 22.968 155.093 28.68C152.101 34.3013 150.605 40.92 150.605 48.536C150.605 56.0613 152.101 62.68 155.093 68.392C158.176 74.104 162.347 78.5013 167.605 81.584C172.955 84.6667 178.939 86.208 185.557 86.208ZM321.303 28.68C318.674 23.1493 314.866 18.888 309.879 15.896C304.893 12.8133 299.09 11.272 292.471 11.272C285.853 11.272 279.869 12.8133 274.519 15.896C269.261 18.888 265.09 23.24 262.007 28.952C259.015 34.5733 257.519 41.1013 257.519 48.536C257.519 55.9707 259.015 62.4987 262.007 68.12C265.09 73.7413 269.261 78.0933 274.519 81.176C279.869 84.168 285.853 85.664 292.471 85.664C301.719 85.664 309.335 82.8987 315.319 77.368C321.303 71.8373 324.794 64.3573 325.791 54.928H287.983V44.864H338.983V54.384C338.258 62.1813 335.81 69.344 331.639 75.872C327.469 82.3093 321.983 87.432 315.183 91.24C308.383 94.9573 300.813 96.816 292.471 96.816C283.677 96.816 275.653 94.776 268.399 90.696C261.146 86.5253 255.389 80.768 251.127 73.424C246.957 66.08 244.871 57.784 244.871 48.536C244.871 39.288 246.957 30.992 251.127 23.648C255.389 16.2133 261.146 10.456 268.399 6.37599C275.653 2.20533 283.677 0.119994 292.471 0.119994C302.535 0.119994 311.421 2.61333 319.127 7.6C326.925 12.5867 332.591 19.6133 336.127 28.68H321.303Z" fill="#979797" fill-opacity="0.1"/>
</svg>
