<svg width="523" height="95" viewBox="0 0 523 95" fill="none" xmlns="http://www.w3.org/2000/svg">
<path d="M96.624 0.887996V95H84.248V24.824L52.968 95H44.264L12.848 24.688V95H0.472001V0.887996H13.8L48.616 78.68L83.432 0.887996H96.624ZM129.989 10.272V41.96H164.533V52.16H129.989V84.8H168.613V95H117.613V0.0719981H168.613V10.272H129.989ZM283.491 0.887996V95H271.115V24.824L239.835 95H231.131L199.715 24.688V95H187.339V0.887996H200.667L235.483 78.68L270.299 0.887996H283.491ZM351.944 46.176C355.389 46.72 358.517 48.1253 361.328 50.392C364.229 52.6587 366.496 55.4693 368.128 58.824C369.85 62.1787 370.712 65.76 370.712 69.568C370.712 74.3733 369.488 78.7253 367.04 82.624C364.592 86.432 361.01 89.4693 356.296 91.736C351.672 93.912 346.186 95 339.84 95H304.48V0.207996H338.48C344.917 0.207996 350.402 1.296 354.936 3.47199C359.469 5.55733 362.869 8.41333 365.136 12.04C367.402 15.6667 368.536 19.7467 368.536 24.28C368.536 29.9013 366.994 34.5707 363.912 38.288C360.92 41.9147 356.93 44.544 351.944 46.176ZM316.856 41.144H337.664C343.466 41.144 347.954 39.784 351.128 37.064C354.301 34.344 355.888 30.5813 355.888 25.776C355.888 20.9707 354.301 17.208 351.128 14.488C347.954 11.768 343.376 10.408 337.392 10.408H316.856V41.144ZM338.752 84.8C344.917 84.8 349.722 83.3493 353.168 80.448C356.613 77.5467 358.336 73.512 358.336 68.344C358.336 63.0853 356.522 58.96 352.896 55.968C349.269 52.8853 344.418 51.344 338.344 51.344H316.856V84.8H338.752ZM400.262 10.272V41.96H434.806V52.16H400.262V84.8H438.886V95H387.886V0.0719981H438.886V10.272H400.262ZM507.525 95L484.949 56.24H469.989V95H457.613V0.207996H488.213C495.375 0.207996 501.405 1.432 506.301 3.88C511.287 6.328 515.005 9.63733 517.453 13.808C519.901 17.9787 521.125 22.7387 521.125 28.088C521.125 34.616 519.221 40.3733 515.413 45.36C511.695 50.3467 506.074 53.656 498.549 55.288L522.349 95H507.525ZM469.989 46.312H488.213C494.922 46.312 499.954 44.68 503.309 41.416C506.663 38.0613 508.341 33.6187 508.341 28.088C508.341 22.4667 506.663 18.1147 503.309 15.032C500.045 11.9493 495.013 10.408 488.213 10.408H469.989V46.312Z" fill="#979797" fill-opacity="0.1"/>
</svg>
