<svg width="881" height="98" viewBox="0 0 881 98" fill="none" xmlns="http://www.w3.org/2000/svg">
<path d="M50.384 97L27.808 58.24H12.848V97H0.472001V2.208H31.072C38.2347 2.208 44.264 3.432 49.16 5.88C54.1467 8.328 57.864 11.6373 60.312 15.808C62.76 19.9787 63.984 24.7387 63.984 30.088C63.984 36.616 62.08 42.3733 58.272 47.36C54.5547 52.3467 48.9333 55.656 41.408 57.288L65.208 97H50.384ZM12.848 48.312H31.072C37.7813 48.312 42.8133 46.68 46.168 43.416C49.5227 40.0613 51.2 35.6187 51.2 30.088C51.2 24.4667 49.5227 20.1147 46.168 17.032C42.904 13.9493 37.872 12.408 31.072 12.408H12.848V48.312ZM95.5902 12.272V43.96H130.134V54.16H95.5902V86.8H134.214V97H83.2142V2.072H134.214V12.272H95.5902ZM148.317 49.536C148.317 40.288 150.402 31.992 154.573 24.648C158.743 17.2133 164.41 11.4107 171.573 7.24C178.826 3.06933 186.85 0.983996 195.645 0.983996C205.981 0.983996 215.002 3.47733 222.709 8.464C230.415 13.4507 236.037 20.5227 239.573 29.68H224.749C222.119 23.968 218.311 19.5707 213.325 16.488C208.429 13.4053 202.535 11.864 195.645 11.864C189.026 11.864 183.087 13.4053 177.829 16.488C172.57 19.5707 168.445 23.968 165.453 29.68C162.461 35.3013 160.965 41.92 160.965 49.536C160.965 57.0613 162.461 63.68 165.453 69.392C168.445 75.0133 172.57 79.3653 177.829 82.448C183.087 85.5307 189.026 87.072 195.645 87.072C202.535 87.072 208.429 85.576 213.325 82.584C218.311 79.5013 222.119 75.104 224.749 69.392H239.573C236.037 78.4587 230.415 85.4853 222.709 90.472C215.002 95.368 205.981 97.816 195.645 97.816C186.85 97.816 178.826 95.776 171.573 91.696C164.41 87.5253 158.743 81.768 154.573 74.424C150.402 67.08 148.317 58.784 148.317 49.536ZM307.907 97L285.331 58.24H270.371V97H257.995V2.208H288.595C295.758 2.208 301.787 3.432 306.683 5.88C311.67 8.328 315.387 11.6373 317.835 15.808C320.283 19.9787 321.507 24.7387 321.507 30.088C321.507 36.616 319.603 42.3733 315.795 47.36C312.078 52.3467 306.457 55.656 298.931 57.288L322.731 97H307.907ZM270.371 48.312H288.595C295.305 48.312 300.337 46.68 303.691 43.416C307.046 40.0613 308.723 35.6187 308.723 30.088C308.723 24.4667 307.046 20.1147 303.691 17.032C300.427 13.9493 295.395 12.408 288.595 12.408H270.371V48.312ZM352.842 2.208V62.184C352.842 70.616 354.882 76.872 358.962 80.952C363.132 85.032 368.89 87.072 376.234 87.072C383.487 87.072 389.154 85.032 393.234 80.952C397.404 76.872 399.49 70.616 399.49 62.184V2.208H411.866V62.048C411.866 69.936 410.279 76.6 407.106 82.04C403.932 87.3893 399.626 91.3787 394.186 94.008C388.836 96.6373 382.807 97.952 376.098 97.952C369.388 97.952 363.314 96.6373 357.874 94.008C352.524 91.3787 348.263 87.3893 345.09 82.04C342.007 76.6 340.466 69.936 340.466 62.048V2.208H352.842ZM444.887 2.208V97H432.511V2.208H444.887ZM524.324 2.208V12.272H498.484V97H486.108V12.272H460.132V2.208H524.324ZM635.71 2.888V97H623.334V26.824L592.054 97H583.35L551.934 26.688V97H539.558V2.888H552.886L587.702 80.68L622.518 2.888H635.71ZM669.075 12.272V43.96H703.619V54.16H669.075V86.8H707.699V97H656.699V2.072H707.699V12.272H669.075ZM800.953 97H788.577L738.801 21.52V97H726.425V2.072H738.801L788.577 77.416V2.072H800.953V97ZM880.394 2.208V12.272H854.554V97H842.178V12.272H816.202V2.208H880.394Z" fill="#979797" fill-opacity="0.1"/>
</svg>
